<?xml version="1.0" encoding="iso-8859-1"?>
<!-- Generator: Adobe Illustrator 19.0.0, SVG Export Plug-In . SVG Version: 6.00 Build 0)  -->
<svg version="1.1" id="Capa_1" xmlns="http://www.w3.org/2000/svg" xmlns:xlink="http://www.w3.org/1999/xlink" x="0px" y="0px"
	 viewBox="0 0 448.014 448.014" style="enable-background:new 0 0 448.014 448.014;" xml:space="preserve">
<path style="fill:#F9E0A0;" d="M319.976,184.014l31.688-96c-2.656-18-22.984-32-47.688-32c-8.696-0.048-17.297,1.797-25.208,5.408
	c-5.822-25.831-31.482-42.051-57.313-36.229c-12.645,2.85-23.597,10.699-30.359,21.757c-4.986-26.014-30.116-43.061-56.131-38.075
	c-12.968,2.486-24.338,10.208-31.429,21.347c-23.03-13.059-52.285-4.975-65.343,18.054c-7.89,13.915-8.32,30.849-1.145,45.146
	c-25.818,12.527-36.592,43.612-24.065,69.43s43.612,36.592,69.43,24.065c1.917-0.93,3.775-1.977,5.563-3.135L319.976,184.014z"/>
<g>
	<g>
		<path id="SVGCleanerId_0" style="fill:#F4CA62;" d="M47.976,112.014h16v16h-16V112.014z"/>
	</g>
	<g>
		<path id="SVGCleanerId_1" style="fill:#F4CA62;" d="M127.976,32.014h16v16h-16V32.014z"/>
	</g>
	<g>
		<path id="SVGCleanerId_2" style="fill:#F4CA62;" d="M151.976,56.014h16v16h-16V56.014z"/>
	</g>
	<g>
		<path id="SVGCleanerId_3" style="fill:#F4CA62;" d="M31.976,144.014h16v16h-16V144.014z"/>
	</g>
</g>
<path style="fill:#B9B9B9;" d="M383.976,424.014c0,8.837-7.163,16-16,16h-296c-8.837,0-16-7.163-16-16s7.163-16,16-16h16v-320h264
	v320h16C376.812,408.014,383.976,415.178,383.976,424.014z"/>
<path style="fill:#DBDBDB;" d="M87.976,88.014v226.448c75.112-14.144,194.56-61.736,264-217.896v-8.552H87.976z"/>
<path style="fill:#D9D9D9;" d="M119.976,88.014h200l0,0v280c0,17.673-14.327,32-32,32h-136c-17.673,0-32-14.327-32-32V88.014
	L119.976,88.014z"/>
<path style="fill:#EAEAE8;" d="M319.976,156.262V88.014h-200v218.864C203.04,283.265,274.337,229.572,319.976,156.262
	L319.976,156.262z"/>
<path style="fill:#FBB540;" d="M287.976,400.014h-136c-17.673,0-32-14.327-32-32v-176h200v176
	C319.976,385.687,305.649,400.014,287.976,400.014z"/>
<path style="fill:#F7BA61;" d="M294.056,192.014h-174.08v114.864C188.484,287.514,249.304,247.383,294.056,192.014L294.056,192.014z
	"/>
<g>
	<path style="fill:#EA9D2D;" d="M271.976,280.014h16v16h-16V280.014z"/>
	<path style="fill:#EA9D2D;" d="M239.976,304.014h16v16h-16V304.014z"/>
	<path style="fill:#EA9D2D;" d="M271.976,328.014h16v16h-16V328.014z"/>
</g>
<g>
	<path style="fill:#F9E0A0;" d="M143.976,264.014h16v16h-16V264.014z"/>
	<path style="fill:#F9E0A0;" d="M175.976,240.014h16v16h-16V240.014z"/>
	<path style="fill:#F9E0A0;" d="M143.976,216.014h16v16h-16V216.014z"/>
</g>
<path style="fill:#B9B9B9;" d="M391.976,120.014h-48v32h40c13.255,0,24,10.745,24,24v72c0,13.255-10.745,24-24,24h-40v32h48
	c26.51,0,48-21.49,48-48v-88C439.976,141.505,418.485,120.014,391.976,120.014z"/>
<path d="M59.976,200.014c6.824-0.047,13.588-1.264,20-3.6v203.6h-8c-13.255,0-24,10.745-24,24s10.745,24,24,24h296
	c13.255,0,24-10.745,24-24s-10.745-24-24-24h-8v-88h32c30.913-0.035,55.965-25.087,56-56v-88c-0.035-30.913-25.087-55.965-56-56h-32
	v-24c-0.02-1.215-0.321-2.409-0.88-3.488c-4.544-20.968-27.704-36.512-55.12-36.512c-6.814-0.009-13.593,0.98-20.12,2.936
	c-11.644-28.652-44.31-42.44-72.963-30.797c-6.226,2.53-11.945,6.16-16.885,10.716C180.148,3.251,146.524-7.904,118.904,5.955
	c-6.871,3.448-12.958,8.275-17.881,14.179C72.363,8.51,39.706,22.32,28.082,50.98c-2.71,6.682-4.104,13.824-4.106,21.034
	c-0.008,6.107,0.998,12.174,2.976,17.952C-0.689,108.243-8.28,145.467,9.997,173.108C21.093,189.888,39.859,199.991,59.976,200.014z
	 M367.976,416.014c4.418,0,8,3.582,8,8s-3.582,8-8,8h-296c-4.418,0-8-3.582-8-8s3.582-8,8-8h16c4.418,0,8-3.582,8-8v-312h16v272
	c0.026,22.08,17.92,39.974,40,40h136c22.08-0.026,39.974-17.92,40-40v-272h16v312c0,4.418,3.582,8,8,8H367.976z M311.976,184.014
	h-184v-88h184V184.014z M127.976,200.014h184v168c0,13.255-10.745,24-24,24h-136c-13.255,0-24-10.745-24-24V200.014z
	 M359.976,160.014h24c8.837,0,16,7.163,16,16v72c0,8.837-7.163,16-16,16h-24V160.014z M391.976,128.014
	c22.08,0.026,39.974,17.92,40,40v88c-0.026,22.08-17.92,39.974-40,40h-32v-16h24c17.673,0,32-14.327,32-32v-72
	c0-17.673-14.327-32-32-32h-24v-16H391.976z M40.584,100.574c3.962-1.955,5.59-6.752,3.635-10.714
	c-0.006-0.013-0.013-0.025-0.019-0.038c-2.78-5.525-4.226-11.624-4.224-17.808c0.013-22.091,17.932-39.99,40.023-39.977
	c6.867,0.004,13.617,1.776,19.601,5.145c3.7,2.093,8.391,0.926,10.68-2.656c11.84-18.619,36.533-24.114,55.152-12.273
	c9.29,5.908,15.731,15.388,17.8,26.201c0.83,4.34,5.021,7.185,9.36,6.355c2.207-0.422,4.135-1.753,5.312-3.667
	c11.503-18.824,36.088-24.758,54.912-13.255c9.227,5.638,15.773,14.777,18.144,25.327c0.966,4.311,5.244,7.024,9.555,6.058
	c0.567-0.127,1.119-0.315,1.645-0.562c6.848-3.12,14.291-4.722,21.816-4.696c13.859-0.622,27.205,5.303,36.04,16H87.976
	c-4.418,0-8,3.582-8,8v91.2c-21.366,11.577-48.071,3.642-59.648-17.724s-3.642-48.071,17.724-59.648
	C38.882,101.393,39.726,100.97,40.584,100.574L40.584,100.574z"/>
<path id="SVGCleanerId_0_1_" d="M47.976,112.014h16v16h-16V112.014z"/>
<path id="SVGCleanerId_1_1_" d="M127.976,32.014h16v16h-16V32.014z"/>
<path id="SVGCleanerId_2_1_" d="M151.976,56.014h16v16h-16V56.014z"/>
<path d="M271.976,280.014h16v16h-16V280.014z"/>
<path d="M239.976,304.014h16v16h-16V304.014z"/>
<path d="M271.976,328.014h16v16h-16V328.014z"/>
<path d="M143.976,264.014h16v16h-16V264.014z"/>
<path d="M175.976,240.014h16v16h-16V240.014z"/>
<path d="M143.976,216.014h16v16h-16V216.014z"/>
<path id="SVGCleanerId_3_1_" d="M31.976,144.014h16v16h-16V144.014z"/>
<g>
</g>
<g>
</g>
<g>
</g>
<g>
</g>
<g>
</g>
<g>
</g>
<g>
</g>
<g>
</g>
<g>
</g>
<g>
</g>
<g>
</g>
<g>
</g>
<g>
</g>
<g>
</g>
<g>
</g>
</svg>
