<svg height="512" viewBox="0 0 512 512" width="512" xmlns="http://www.w3.org/2000/svg"><g id="filled_outline" data-name="filled outline"><circle cx="256" cy="256" fill="#c0f5f9" r="232"/><path d="m384 256-63.47 50.24-1.14.91a167.683 167.683 0 0 1 -31.79 19.85h-.01a167.551 167.551 0 0 1 -200.25-43.28l-23.34-27.72 23.34-27.72a167.457 167.457 0 0 1 200.25-43.29v.01a167.25 167.25 0 0 1 31.8 19.85l.39.31z" fill="#6cbae5"/><path d="m149.85 329.97a166.747 166.747 0 0 1 -62.51-46.25l-23.34-27.72 23.34-27.72a166.747 166.747 0 0 1 62.51-46.25 178.935 178.935 0 0 1 0 147.94z" fill="#4799cf"/><path d="m256 464a207.111 207.111 0 0 1 -74.881-13.889 8 8 0 0 1 5.762-14.926 192.808 192.808 0 0 0 138.238 0 8 8 0 1 1 5.762 14.926 207.111 207.111 0 0 1 -74.881 13.889z" fill="#b8eaee"/><path d="m328 77.354a7.971 7.971 0 0 1 -2.879-.539 192.915 192.915 0 0 0 -130.56-2.776 8 8 0 1 1 -5.118-15.16 208.916 208.916 0 0 1 141.44 3.01 8 8 0 0 1 -2.883 15.465z" fill="#b8eaee"/><path d="m448 208-64 48 64 48z" fill="#4799cf"/><circle cx="128" cy="256" fill="#aedee2" r="11.314"/><path d="m238 303.99 14.65 35.17a167.183 167.183 0 0 1 -38.27 4.15l-16.38-39.32 20-47.99-20-48 16.38-39.31a167.183 167.183 0 0 1 38.27 4.15l-14.65 35.16 20 48z" fill="#4799cf"/><path d="m318 303.99 2.53 2.25-1.14.91a167.683 167.683 0 0 1 -31.79 19.85h-.01l-9.59-23.01 20-47.99-20-48 9.59-23a167.25 167.25 0 0 1 31.8 19.85l.39.31-1.78 2.84 20 48z" fill="#4799cf"/><path d="m256 16a240 240 0 0 0 -169.706 409.706 240 240 0 0 0 339.412-339.412 238.432 238.432 0 0 0 -169.706-70.294zm158.392 398.392a224 224 0 0 1 -316.784-316.784 224 224 0 0 1 316.784 316.784z"/><path d="m325.119 435.185a192.808 192.808 0 0 1 -138.238 0 8 8 0 0 0 -5.762 14.926 208.8 208.8 0 0 0 149.762 0 8 8 0 1 0 -5.762-14.926z"/><path d="m194.559 74.039a192.915 192.915 0 0 1 130.56 2.776 8 8 0 1 0 5.762-14.926 208.916 208.916 0 0 0 -141.44-3.01 8 8 0 1 0 5.118 15.16z"/><circle cx="128" cy="256" r="11.314"/><path d="m324.477 198.674c-.025-.021-.052-.04-.077-.061l-.043-.034a175.471 175.471 0 0 0 -243.135 24.55l-23.341 27.718a8 8 0 0 0 0 10.306l23.341 27.718a174.577 174.577 0 0 0 116.591 61.556 177.818 177.818 0 0 0 17.878.9 174.444 174.444 0 0 0 108.666-37.909l59.775-47.318 59.068 44.3a8 8 0 0 0 12.8-6.4v-96a8 8 0 0 0 -12.8-6.4l-59.068 44.3zm-13.861 102.239a7.986 7.986 0 0 0 -.6 3.322 160.571 160.571 0 0 1 -18.358 11.721l-4.987-11.966 18.717-44.912a8 8 0 0 0 0-6.155l-18.721-44.923 4.986-11.958a160.542 160.542 0 0 1 18.359 11.722 7.993 7.993 0 0 0 .6 3.312l18.721 44.924zm-53.216 28.841-10.731-25.763 18.717-44.913a8 8 0 0 0 0-6.155l-18.719-44.923 10.733-25.755a157.828 157.828 0 0 1 19.82 6.843l-6.6 15.833a8 8 0 0 0 0 6.156l18.713 44.923-18.717 44.913a8 8 0 0 0 0 6.155l6.6 15.843a157.842 157.842 0 0 1 -19.816 6.843zm-37.7 5.515-13.029-31.278 18.717-44.913a8 8 0 0 0 0-6.155l-18.721-44.923 13.033-31.269a158.939 158.939 0 0 1 21.813 2.048l-10.894 26.144a8.005 8.005 0 0 0 0 6.154l18.714 44.923-18.717 44.913a8 8 0 0 0 0 6.153l10.894 26.154a159.126 159.126 0 0 1 -21.81 2.049zm-126.24-56.704-19.001-22.565 19-22.565a159.094 159.094 0 0 1 52.24-40.749 170.688 170.688 0 0 1 0 126.628 159.094 159.094 0 0 1 -52.239-40.749zm66.967 47a186.652 186.652 0 0 0 0-139.132 160.186 160.186 0 0 1 38.994-8.942c.909-.092 1.817-.166 2.725-.242l-11.531 27.673a8.005 8.005 0 0 0 0 6.154l18.718 44.924-18.717 44.913a8 8 0 0 0 0 6.153l11.533 27.684c-.909-.076-1.818-.15-2.727-.242a160.186 160.186 0 0 1 -38.995-8.942zm174.2-40.686 10.753-25.8a8 8 0 0 0 0-6.155l-10.75-25.8 36.481 28.876zm105.373-60.879v64l-42.667-32z"/></g></svg>