<svg height="480pt" viewBox="0 -4 480 480" width="480pt" xmlns="http://www.w3.org/2000/svg"><path d="m127.199219 88h225.601562l29.992188 287.703125c2.347656 22.542969-4.972657 45.023437-20.148438 61.859375s-36.78125 26.441406-59.445312 26.4375h-126.398438c-22.660156 0-44.257812-9.613281-59.429687-26.445312-15.171875-16.835938-22.488282-39.3125-20.140625-61.851563zm0 0" fill="#faac2b"/><path d="m216 464h-144l-24-240h192zm0 0" fill="#ccdce5"/><path d="m55.199219 296 16.800781 168h144l16.800781-168zm0 0" fill="#ffc018"/><path d="m352.800781 88h-225.601562l-10.007813 96h245.617188zm0 0" fill="#ccdce5"/><path d="m127.199219 88-15.199219-80 20.800781 13.855469c17.742188 11.828125 38.585938 18.144531 59.910157 18.144531h167.289062l-7.199219 48zm0 0" fill="#aab9c1"/><path d="m323.839844 120h68.160156c26.507812 0 48 21.488281 48 48v88h-24l-12.640625-75.921875c-1.917969-11.585937-11.9375-20.078125-23.679687-20.078125h-51.679688zm0 0" fill="#ccdce5"/><path d="m416 392c0 39.765625-32.234375 72-72 72s-72-32.234375-72-72 32.234375-72 72-72 72 32.234375 72 72zm0 0" fill="#ffc018"/><path d="m379.753906 272h12.246094v12.246094c0 19.746094-16.007812 35.753906-35.753906 35.753906h-12.246094v-12.25c0-19.742188 16.007812-35.75 35.753906-35.75zm0 0" fill="#88bf40"/><path d="m424 392c-.035156-27.964844-14.679688-53.878906-38.617188-68.335938l-.65625-6.273437c9.6875-8.289063 15.265626-20.394531 15.273438-33.144531v-12.246094c0-4.417969-3.582031-8-8-8h-12.246094c-.195312 0-.371094 0-.5625 0l-10.015625-96h10.503907c7.832031-.003906 14.515624 5.664062 15.792968 13.390625l12.640625 75.921875c.640625 3.855469 3.976563 6.683594 7.886719 6.6875h24c4.417969 0 8-3.582031 8-8v-88c-.039062-30.914062-25.089844-55.960938-56-56h-28.664062l-2.480469-23.792969 7.054687-47.023437c.347656-2.304688-.328125-4.640625-1.847656-6.40625s-3.734375-2.777344-6.0625-2.777344h-167.289062c-19.753907.015625-39.066407-5.832031-55.496094-16.800781l-20.800782-13.855469c-2.679687-1.789062-6.171874-1.792969-8.855468-.011719s-4.039063 4.996094-3.4375 8.164063l14.984375 78.855468-13.273438 127.648438h-57.832031c-2.269531-.011719-4.433594.941406-5.960938 2.617188-1.523437 1.679687-2.265624 3.925781-2.039062 6.183593l23.199219 231.199219h-31.199219v16h448v-16h-88.207031c20.242187-15.050781 32.183593-38.777344 32.207031-64zm-16 0c0 35.34375-28.652344 64-64 64s-64-28.65625-64-64c0-35.347656 28.652344-64 64-64 35.328125.039062 63.960938 28.667969 64 64zm-24-107.753906c-.019531 15.320312-12.433594 27.734375-27.753906 27.753906h-4.246094v-4.25c.019531-15.320312 12.433594-27.734375 27.753906-27.75h4.246094zm8-156.246094c22.082031.027344 39.972656 17.917969 40 40v80h-9.214844l-11.539062-69.226562c-2.511719-15.46875-15.894532-26.820313-31.566406-26.773438h-12.167969l-2.503907-24zm-263.65625-99.488281c19.050781 12.726562 41.457031 19.511719 64.367188 19.488281h158l-4.800782 32h-212.085937l-10.398438-54.769531zm31.65625 203.488281v56h-97.558594l-5.601562-56zm65.601562 56h-49.601562v-56h55.199219zm-146.363281 168-15.199219-152h159.960938l-15.199219 152zm145.601563 0 23.121094-231.199219c.226562-2.25-.511719-4.492187-2.027344-6.167969-1.515625-1.675781-3.671875-2.632812-5.933594-2.632812h-64v-35.058594l27.574219-13.742187-7.148438-14.320313-32 16c-2.703125 1.347656-4.410156 4.101563-4.425781 7.121094v40h-38.089844l2.503906-24h19.585938v-16h-17.921875l8.320313-80h211.203124l8.34375 80h-153.945312v16h155.601562l7.839844 75.199219c-16.554687 6.664062-27.410156 22.707031-27.441406 40.550781v4.65625c-32.832031 3.261719-60.28125 26.367188-69.09375 58.164062-8.808594 31.792969 2.832031 65.734376 29.300781 85.429688zm0 0"/><path d="m0 456h16v16h-16zm0 0"/><path d="m88 328h16v16h-16zm0 0"/><path d="m176 344h16v16h-16zm0 0"/><path d="m96 392h16v16h-16zm0 0"/><path d="m264 296h16v16h-16zm0 0"/><path d="m328 240h16v16h-16zm0 0"/><path d="m280 216h16v16h-16zm0 0"/><path d="m168 416h16v16h-16zm0 0"/><path d="m368 400h16v16h-16zm0 0"/><path d="m344 424h16v16h-16zm0 0"/></svg>